<?xml version="1.0" encoding="UTF-8" standalone="no"?>
<svg
   height="48px"
   viewBox="0 0 24 24"
   width="48px"
   fill="#FFFFFF"
   version="1.1"
   id="svg6"
   sodipodi:docname="account.svg"
   inkscape:version="1.1.2 (0a00cf5339, 2022-02-04)"
   xmlns:inkscape="http://www.inkscape.org/namespaces/inkscape"
   xmlns:sodipodi="http://sodipodi.sourceforge.net/DTD/sodipodi-0.dtd"
   xmlns="http://www.w3.org/2000/svg"
   xmlns:svg="http://www.w3.org/2000/svg">
  <defs
     id="defs10" />
  <sodipodi:namedview
     id="namedview8"
     pagecolor="#ffffff"
     bordercolor="#666666"
     borderopacity="1.0"
     inkscape:pageshadow="2"
     inkscape:pageopacity="0.0"
     inkscape:pagecheckerboard="0"
     showgrid="false"
     inkscape:zoom="15.541667"
     inkscape:cx="24"
     inkscape:cy="24.032172"
     inkscape:window-width="1920"
     inkscape:window-height="987"
     inkscape:window-x="0"
     inkscape:window-y="60"
     inkscape:window-maximized="1"
     inkscape:current-layer="svg6" />
  <path
     d="M0 0h24v24H0z"
     fill="none"
     id="path2" />
  <path
     d="M3 5v14c0 1.1.89 2 2 2h14c1.1 0 2-.9 2-2V5c0-1.1-.9-2-2-2H5c-1.11 0-2 .9-2 2zm12 4c0 1.66-1.34 3-3 3s-3-1.34-3-3 1.34-3 3-3 3 1.34 3 3zm-9 8c0-2 4-3.1 6-3.1s6 1.1 6 3.1v1H6v-1z"
     id="path4"
     style="fill:#ffffff" />
  <path
     style="fill:#4d4d4d;stroke-width:0.0643432"
     d="m 22.841823,23.842519 c -1.196918,-0.254422 -2.224469,-0.806248 -3.057111,-1.641761 -1.566028,-1.571428 -2.130152,-3.860067 -1.471924,-5.971564 0.500416,-1.605261 1.75178,-3.009153 3.292498,-3.69382 1.465098,-0.651063 3.374946,-0.639725 4.849321,0.02879 1.889849,0.856898 3.214012,2.684107 3.46982,4.787991 0.280512,2.307071 -0.973621,4.722648 -3.045923,5.866729 -1.210395,0.668238 -2.725599,0.902325 -4.036681,0.623636 z"
     id="path776"
     transform="scale(0.5)" />
  <path
     style="fill:#4d4d4d;stroke-width:0.0643432"
     d="m 12.04507,34.697051 c 0.02576,-1.499499 0.08541,-1.746539 0.606072,-2.510233 1.408595,-2.066078 5.589402,-3.839654 10.117069,-4.29185 1.671365,-0.166926 3.691123,0.04088 5.881585,0.605142 3.22589,0.830985 5.668625,2.1753 6.699062,3.686708 0.51655,0.757657 0.577436,1.009952 0.605787,2.510233 L 35.979267,36 H 24.000976 12.022686 Z"
     id="path815"
     transform="scale(0.5)" />
</svg>
